<svg width="46" height="46" viewBox="0 0 46 46" fill="none" xmlns="http://www.w3.org/2000/svg">
<g clip-path="url(#clip0_1526_1961)">
<path d="M22.766 0.00100708C10.194 0.00100708 0 10.193 0 22.766C0 35.339 10.193 45.531 22.766 45.531C35.34 45.531 45.532 35.339 45.532 22.766C45.532 10.193 35.34 0.00100708 22.766 0.00100708ZM22.766 6.80801C26.926 6.80801 30.297 10.18 30.297 14.338C30.297 18.497 26.926 21.868 22.766 21.868C18.608 21.868 15.237 18.497 15.237 14.338C15.237 10.18 18.608 6.80801 22.766 6.80801ZM22.761 39.579C18.612 39.579 14.812 38.068 11.881 35.567C11.167 34.958 10.755 34.065 10.755 33.128C10.755 28.911 14.168 25.536 18.386 25.536H27.148C31.367 25.536 34.767 28.911 34.767 33.128C34.767 34.066 34.357 34.957 33.642 35.566C30.712 38.068 26.911 39.579 22.761 39.579Z" fill="#077099"/>
</g>
<defs>
<clipPath id="clip0_1526_1961">
<rect width="45.532" height="45.532" fill="white"/>
</clipPath>
</defs>
</svg>
